<?xml version="1.0" encoding="utf-8"?>
<!-- Generator: Adobe Illustrator 24.2.0, SVG Export Plug-In . SVG Version: 6.00 Build 0)  -->
<svg version="1.1" id="Layer_1" xmlns="http://www.w3.org/2000/svg" xmlns:xlink="http://www.w3.org/1999/xlink" x="0px" y="0px"
	 viewBox="0 0 1836 611" enable-background="new 0 0 1836 611" xml:space="preserve">
<rect x="1856" fill="#1D376C" width="1836" height="611"/>
<g>
	<path fill="#34C1F1" d="M1530.01,92.87c9.01-0.01,18.02,0.06,27.04-0.04c0.18,33.05,0.02,66.11,0.07,99.16c33,0.02,66-0.01,99,0.02
		c0.04,9-0.07,18.01,0.06,27.02c-42.03,0.34-84.08-0.2-126.1,0.27l-0.01-0.45C1529.92,176.85,1530.03,134.86,1530.01,92.87z"/>
	<path fill="#34C1F1" d="M1566.01,92.87c8.95,0.01,17.9,0.01,26.85-0.01c0.04,21.13,0,42.26,0.02,63.39c21.08,0,42.16,0,63.24,0
		c0,9,0,18,0,27c-30.04,0-60.07-0.01-90.11,0.01C1565.99,153.13,1565.99,123,1566.01,92.87z"/>
</g>
<g>
	<path fill="#1D376C" d="M1022.13,218.91c91.9,0.19,183.81,0.05,275.72,0.07c0.06,21.17,0,42.34,0.03,63.51
		c-35.26,0.02-70.51,0-105.76,0.02c-0.04,77.21,0.1,154.42-0.06,231.63c-21.47-0.14-42.94,0.18-64.39-0.15
		c0.19-77.16,0.01-154.32,0.09-231.48c-35.26-0.03-70.51,0-105.76-0.01C1022.08,261.3,1021.83,240.1,1022.13,218.91z"/>
	<path fill="#1D376C" d="M179.63,219.25c21.12-0.01,42.24,0,63.36,0c0.02,56.09,0,112.17,0.01,168.26
		c-0.09,12.39,0.03,25.07,4.07,36.93c4.14,12.97,13.65,24.05,25.93,29.94c17.31,8.42,37.17,9.28,56.05,8.04
		c16.75-1.31,34.61-5.73,46.54-18.36c6.06-6.42,9.98-14.62,12.03-23.15c2.65-10.6,2.64-21.6,2.63-32.45c0-56.4,0.01-112.8,0-169.19
		c21.06-0.11,42.14,0.13,63.2-0.13c0.4,49.45,0.06,98.92,0.17,148.37c-0.23,22.72,1.36,45.87-4.51,68.08
		c-4.44,17.83-13.1,34.82-26.07,47.95c-12.17,12.55-27.8,21.35-44.3,26.82c-19.57,6.5-40.29,8.72-60.83,8.89
		c-22,0.02-44.27-2.25-65.15-9.49c-18.38-6.31-35.51-17.03-47.9-32.15c-14.31-17.19-21.79-39.17-24.16-61.2
		c-1.21-10.9-1.07-21.9-1.08-32.85C179.63,328.79,179.61,274.02,179.63,219.25z"/>
	<path fill="#1D376C" d="M558.76,219.26c36.1,0.01,72.2-0.07,108.3,0.03c23.47,65.14,46.96,130.28,70.52,195.38
		c23.71-65.15,47.2-130.38,71.06-195.47c35.83,0.12,71.65,0.01,107.48,0.06c0.02,86.42,0,172.85,0.01,259.28
		c-0.12,11.89,0.22,23.79-0.18,35.66c-21.99-0.16-43.99-0.07-65.98-0.04c-0.27-77.33,0.06-154.68-0.16-232.02
		c-0.31,0.56-0.93,1.66-1.24,2.22c-26.9,76.59-53.68,153.24-80.68,229.8c-20.53-0.08-41.06-0.01-61.59-0.04
		c-26.66-76.73-53.26-153.48-79.93-230.2c-0.26-0.44-0.79-1.32-1.06-1.76c-0.11,77.29-0.09,154.58-0.01,231.87
		c-22.21,0.11-44.45,0.26-66.65-0.08C558.89,415.72,558.67,317.49,558.76,219.26z"/>
</g>
<g>
	<path fill="#ED202E" d="M1404.03,218.92c42.01,0.08,84.03,0.23,126.04-0.07l0.01,0.45c0.1,41.98,0.03,83.97,0.03,125.95
		c-9.07,0.01-18.13-0.02-27.19,0.02c-0.11-33.05-0.01-66.1-0.05-99.14c-32.95,0.04-65.89-0.11-98.84,0.07
		C1403.76,237.12,1403.77,228,1404.03,218.92z"/>
	<path fill="#ED202E" d="M1403.86,255.04c30.02-0.13,60.04,0.06,90.05-0.1c0.2,30.1,0.04,60.21,0.08,90.32
		c-8.92-0.02-17.83,0-26.74-0.01c0.03-21.1-0.07-42.19,0.06-63.29c-21.15-0.2-42.29-0.02-63.43-0.09
		C1403.86,272.93,1403.89,263.98,1403.86,255.04z"/>
</g>
<g>
	<path fill="#34C1F1" d="M3386.11,92.33c9.01-0.01,18.02,0.06,27.04-0.04c0.18,33.05,0.02,66.11,0.07,99.16c33,0.02,66-0.01,99,0.02
		c0.04,9-0.07,18.01,0.06,27.02c-42.03,0.34-84.08-0.2-126.1,0.27l-0.01-0.45C3386.02,176.31,3386.13,134.32,3386.11,92.33z"/>
	<path fill="#34C1F1" d="M3422.11,92.33c8.95,0.01,17.9,0.01,26.85-0.01c0.04,21.13,0,42.26,0.02,63.39c21.08,0,42.16,0,63.24,0
		c0,9,0,18,0,27c-30.04,0-60.07-0.01-90.11,0.01C3422.09,152.59,3422.09,122.46,3422.11,92.33z"/>
</g>
<g>
	<path fill="#FFFFFF" d="M2878.23,218.37c91.9,0.19,183.81,0.05,275.72,0.07c0.06,21.17,0,42.34,0.03,63.51
		c-35.26,0.02-70.51,0-105.76,0.02c-0.04,77.21,0.1,154.42-0.06,231.63c-21.47-0.14-42.94,0.18-64.39-0.15
		c0.19-77.16,0.01-154.32,0.09-231.48c-35.26-0.03-70.51,0-105.76-0.01C2878.18,260.76,2877.93,239.56,2878.23,218.37z"/>
	<path fill="#FFFFFF" d="M2035.73,218.71c21.12-0.01,42.24,0,63.36,0c0.02,56.09,0,112.17,0.01,168.26
		c-0.09,12.39,0.03,25.07,4.07,36.93c4.14,12.97,13.65,24.05,25.93,29.94c17.31,8.42,37.17,9.28,56.05,8.04
		c16.75-1.31,34.61-5.73,46.54-18.36c6.06-6.42,9.98-14.62,12.03-23.15c2.65-10.6,2.64-21.6,2.63-32.45c0-56.4,0.01-112.8,0-169.19
		c21.06-0.11,42.14,0.13,63.2-0.13c0.4,49.45,0.06,98.92,0.17,148.37c-0.23,22.72,1.36,45.87-4.51,68.08
		c-4.44,17.83-13.1,34.82-26.07,47.95c-12.17,12.55-27.8,21.35-44.3,26.82c-19.57,6.5-40.29,8.72-60.83,8.89
		c-22,0.02-44.27-2.25-65.15-9.49c-18.38-6.31-35.51-17.03-47.9-32.15c-14.31-17.19-21.79-39.17-24.16-61.2
		c-1.21-10.9-1.07-21.9-1.08-32.85C2035.73,328.25,2035.71,273.48,2035.73,218.71z"/>
	<path fill="#FFFFFF" d="M2414.86,218.72c36.1,0.01,72.2-0.07,108.3,0.03c23.47,65.14,46.96,130.28,70.52,195.38
		c23.71-65.15,47.2-130.38,71.06-195.47c35.83,0.12,71.65,0.01,107.48,0.06c0.02,86.42,0,172.85,0.01,259.28
		c-0.12,11.89,0.22,23.79-0.18,35.66c-21.99-0.16-43.99-0.07-65.98-0.04c-0.27-77.33,0.06-154.68-0.16-232.02
		c-0.31,0.56-0.93,1.66-1.24,2.22c-26.9,76.59-53.68,153.24-80.68,229.8c-20.53-0.08-41.06-0.01-61.59-0.04
		c-26.66-76.73-53.26-153.48-79.93-230.2c-0.26-0.44-0.79-1.32-1.06-1.76c-0.11,77.29-0.09,154.58-0.01,231.87
		c-22.21,0.11-44.45,0.26-66.65-0.08C2414.99,415.18,2414.77,316.95,2414.86,218.72z"/>
</g>
<g>
	<path fill="#ED202E" d="M3260.13,218.38c42.01,0.08,84.03,0.23,126.04-0.07l0.01,0.45c0.1,41.98,0.03,83.97,0.03,125.95
		c-9.07,0.01-18.13-0.02-27.19,0.02c-0.11-33.05-0.01-66.1-0.05-99.14c-32.95,0.04-65.89-0.11-98.84,0.07
		C3259.86,236.58,3259.87,227.46,3260.13,218.38z"/>
	<path fill="#ED202E" d="M3259.96,254.5c30.02-0.13,60.04,0.06,90.05-0.1c0.2,30.1,0.04,60.21,0.08,90.32
		c-8.92-0.02-17.83,0-26.74-0.01c0.03-21.1-0.07-42.19,0.06-63.29c-21.15-0.2-42.29-0.02-63.43-0.09
		C3259.96,272.39,3259.99,263.44,3259.96,254.5z"/>
</g>
</svg>
